# xmcd
#
# Track frame offsets:
#	150
#	19197
#	38772
#	57147
#
# Disc length: 1018 seconds
#
# Revision: 0
# Processed by: cddbd v1.5.2PL0 Copyright (c) Steve Scherf et al.
# Submitted via: audiograbber 1.83.01
#
DISCID=2803f804
DTITLE=Ginuwine - Holler (Remix CDM)
DYEAR=1997
DGENRE=R&B
TTITLE0=Holler (Full Crew Phat Mix)
TTITLE1=Holler (Full Crew Smooth Mix)
TTITLE2=Holler (Full Crew Phat Instrumental)
TTITLE3=Holler (Full Crew Smooth Instrumental)
EXTD=
EXTT0=
EXTT1=
EXTT2=
EXTT3=
PLAYORDER=
